# xmcd CD database file
#
# Track frame offsets:
#	150
#	14091
#	28030
#	41855
#	55775
#	70764
#	80776
#	97691
#	122936
#	153673
#	166717
#	178146
#	192809
#	205870
#	220954
#	240504
#	254184
#	271741
#
# Disc length: 3775 seconds
#
# Revision: 0
# Processed by: cddbd v1.5.2PL0 Copyright (c) Steve Scherf et al.
# Submitted via: CDex 1.70beta2
#
DISCID=030ebd12
DTITLE=Various Artist - Time Life Records - Classic Jazz for Lovers
DYEAR=2003
DGENRE=Jazz
TTITLE0=Kiss to Build a Dream On - Louis Armstrong 
TTITLE1=(I Love You) For Sentimental Reasons - Nat King Cole
TTITLE2=Isn't It Romantic? - Ella Fitzgerald
TTITLE3=All of Me - Billie Holiday 
TTITLE4=Stardust - Sarah Vaughan
TTITLE5=I Wanna Be Around - Tony Bennett
TTITLE6=Blue Moon - Mel Tormé
TTITLE7=You Are Too Beautiful - John Coltrane, Johnny Hartman
TTITLE8=Embraceable You - Billie Holiday
TTITLE9=Fly Me to the Moon - Nancy Wilson, Nancy Wilson
TTITLE10=I'm in the Mood for Love - Julie London 
TTITLE11=Smoke Gets in Your Eyes - Clifford Brown
TTITLE12=As Time Goes By - Peggy Lee 
TTITLE13=Ain't Misbehavin' - Carmen McRae 
TTITLE14=It Had to Be You - Harry Carney 
TTITLE15=Misty - Sarah Vaughan 
TTITLE16=Man I Love - Ella Fitzgerald 
TTITLE17=It's Magic - Dinah Washington 
EXTD=YEAR: 2003
EXTT0=
EXTT1=
EXTT2=
EXTT3=
EXTT4=
EXTT5=
EXTT6=
EXTT7=
EXTT8=
EXTT9=
EXTT10=
EXTT11=
EXTT12=
EXTT13=
EXTT14=
EXTT15=
EXTT16=
EXTT17=
PLAYORDER=
